<svg xmlns="http://www.w3.org/2000/svg" viewBox="54 184 82 38" fill="#c5d92d">
<path fill-rule="nonzero" fill="#c5d92d" fill-opacity="1" d="M 57.234375 218.566406 L 57.234375 215.535156 L 56.640625 215.535156 L 56.640625 219.132812 L 59 219.132812 L 59 218.566406 Z M 57.234375 218.566406 "/>
<path fill-rule="nonzero" fill="#c5d92d" fill-opacity="1" d="M 66.867188 216.101562 L 66.867188 215.535156 L 64.507812 215.535156 L 64.507812 219.132812 L 66.867188 219.132812 L 66.867188 218.566406 L 65.097656 218.566406 L 65.097656 217.628906 L 66.59375 217.628906 L 66.59375 217.066406 L 65.097656 217.066406 L 65.097656 216.101562 Z M 66.867188 216.101562 "/>
<path fill-rule="nonzero" fill="#c5d92d" fill-opacity="1" d="M 74.445312 217.863281 C 74.445312 218.085938 74.378906 218.261719 74.242188 218.382812 C 74.109375 218.503906 73.917969 218.566406 73.675781 218.566406 L 73.085938 218.566406 L 73.085938 216.101562 L 73.675781 216.101562 C 73.917969 216.101562 74.109375 216.164062 74.242188 216.285156 C 74.378906 216.40625 74.445312 216.582031 74.445312 216.804688 Z M 74.890625 216.128906 C 74.78125 215.933594 74.621094 215.789062 74.414062 215.6875 C 74.203125 215.585938 73.953125 215.535156 73.660156 215.535156 L 72.496094 215.535156 L 72.496094 219.132812 L 73.65625 219.132812 C 73.957031 219.132812 74.210938 219.078125 74.417969 218.976562 C 74.625 218.871094 74.785156 218.722656 74.890625 218.53125 C 75 218.339844 75.050781 218.109375 75.050781 217.84375 L 75.050781 216.824219 C 75.050781 216.554688 75 216.320312 74.890625 216.128906 "/>
<path fill-rule="nonzero" fill="#c5d92d" fill-opacity="1" d="M 81.8125 217.1875 L 82.558594 217.1875 L 82.558594 217.9375 L 81.8125 217.9375 Z M 81.8125 217.1875 "/>
<path fill-rule="nonzero" fill="#c5d92d" fill-opacity="1" d="M 90.03125 219.007812 C 89.835938 218.898438 89.691406 218.746094 89.585938 218.542969 C 89.484375 218.339844 89.433594 218.105469 89.433594 217.828125 L 89.433594 216.839844 C 89.433594 216.566406 89.484375 216.328125 89.585938 216.128906 C 89.691406 215.925781 89.835938 215.773438 90.03125 215.664062 C 90.222656 215.554688 90.449219 215.5 90.707031 215.5 C 90.925781 215.5 91.121094 215.546875 91.296875 215.636719 C 91.46875 215.730469 91.617188 215.863281 91.734375 216.039062 C 91.847656 216.210938 91.929688 216.417969 91.972656 216.65625 L 91.363281 216.65625 C 91.332031 216.539062 91.285156 216.4375 91.222656 216.351562 C 91.160156 216.265625 91.082031 216.199219 90.992188 216.152344 C 90.90625 216.105469 90.808594 216.082031 90.707031 216.082031 C 90.570312 216.082031 90.453125 216.113281 90.351562 216.175781 C 90.253906 216.238281 90.175781 216.324219 90.121094 216.4375 C 90.066406 216.550781 90.039062 216.6875 90.039062 216.839844 L 90.039062 217.828125 C 90.039062 217.984375 90.066406 218.117188 90.121094 218.230469 C 90.175781 218.34375 90.253906 218.433594 90.351562 218.492188 C 90.453125 218.554688 90.570312 218.585938 90.707031 218.585938 C 90.8125 218.585938 90.90625 218.5625 90.996094 218.519531 C 91.085938 218.472656 91.160156 218.410156 91.222656 218.324219 C 91.289062 218.238281 91.335938 218.132812 91.363281 218.011719 L 91.972656 218.011719 C 91.925781 218.25 91.847656 218.457031 91.730469 218.628906 C 91.613281 218.804688 91.46875 218.9375 91.292969 219.03125 C 91.117188 219.121094 90.921875 219.167969 90.707031 219.167969 C 90.449219 219.167969 90.222656 219.113281 90.03125 219.007812 "/>
<path fill-rule="nonzero" fill="#c5d92d" fill-opacity="1" d="M 99.074219 218.492188 C 99.175781 218.433594 99.257812 218.347656 99.3125 218.242188 C 99.367188 218.128906 99.398438 218.003906 99.398438 217.859375 L 99.398438 216.808594 C 99.398438 216.664062 99.367188 216.539062 99.3125 216.425781 C 99.257812 216.320312 99.175781 216.234375 99.074219 216.175781 C 98.96875 216.113281 98.851562 216.085938 98.714844 216.085938 C 98.582031 216.085938 98.460938 216.113281 98.359375 216.175781 C 98.253906 216.234375 98.175781 216.320312 98.121094 216.425781 C 98.066406 216.539062 98.035156 216.664062 98.035156 216.808594 L 98.035156 217.859375 C 98.035156 218.003906 98.066406 218.128906 98.121094 218.242188 C 98.175781 218.347656 98.253906 218.433594 98.359375 218.492188 C 98.460938 218.550781 98.582031 218.582031 98.714844 218.582031 C 98.851562 218.582031 98.96875 218.550781 99.074219 218.492188 M 98.042969 219.003906 C 97.847656 218.894531 97.695312 218.738281 97.589844 218.539062 C 97.480469 218.339844 97.429688 218.105469 97.429688 217.84375 L 97.429688 216.824219 C 97.429688 216.5625 97.480469 216.328125 97.589844 216.128906 C 97.695312 215.929688 97.847656 215.773438 98.042969 215.664062 C 98.234375 215.554688 98.460938 215.5 98.714844 215.5 C 98.972656 215.5 99.195312 215.554688 99.390625 215.664062 C 99.585938 215.773438 99.738281 215.929688 99.84375 216.128906 C 99.949219 216.328125 100.003906 216.5625 100.003906 216.824219 L 100.003906 217.84375 C 100.003906 218.105469 99.949219 218.339844 99.84375 218.539062 C 99.738281 218.738281 99.585938 218.894531 99.390625 219.003906 C 99.195312 219.113281 98.972656 219.167969 98.714844 219.167969 C 98.460938 219.167969 98.234375 219.113281 98.042969 219.003906 "/>
<path fill-rule="nonzero" fill="#c5d92d" fill-opacity="1" d="M 106.273438 216.101562 L 107.167969 216.101562 C 107.25 216.101562 107.324219 216.121094 107.390625 216.160156 C 107.453125 216.203125 107.5 216.257812 107.535156 216.332031 C 107.570312 216.40625 107.585938 216.492188 107.585938 216.589844 C 107.585938 216.6875 107.566406 216.773438 107.53125 216.847656 C 107.5 216.921875 107.449219 216.980469 107.386719 217.019531 C 107.324219 217.0625 107.25 217.082031 107.167969 217.082031 L 106.273438 217.082031 Z M 107.644531 219.132812 L 108.355469 219.132812 L 107.507812 217.601562 C 107.582031 217.582031 107.652344 217.554688 107.71875 217.515625 C 107.871094 217.429688 107.992188 217.304688 108.074219 217.144531 C 108.160156 216.984375 108.203125 216.800781 108.203125 216.589844 C 108.203125 216.378906 108.160156 216.195312 108.074219 216.035156 C 107.992188 215.875 107.871094 215.753906 107.71875 215.664062 C 107.566406 215.578125 107.386719 215.535156 107.183594 215.535156 L 105.683594 215.535156 L 105.683594 219.132812 L 106.273438 219.132812 L 106.273438 217.648438 L 106.855469 217.648438 Z M 107.644531 219.132812 "/>
<path fill-rule="nonzero" fill="#c5d92d" fill-opacity="1" d="M 116.078125 215.535156 L 116.078125 218.199219 L 114.589844 215.535156 L 113.945312 215.535156 L 113.945312 219.128906 L 114.519531 219.128906 L 114.519531 216.507812 L 116.003906 219.128906 L 116.652344 219.128906 L 116.652344 215.535156 Z M 116.078125 215.535156 "/>
<path fill-rule="nonzero" fill="#c5d92d" fill-opacity="1" d="M 124.8125 216.101562 L 124.8125 215.535156 L 122.453125 215.535156 L 122.453125 219.132812 L 124.8125 219.132812 L 124.8125 218.566406 L 123.046875 218.566406 L 123.046875 217.628906 L 124.542969 217.628906 L 124.542969 217.066406 L 123.046875 217.066406 L 123.046875 216.101562 Z M 124.8125 216.101562 "/>
<path fill-rule="nonzero" fill="#c5d92d" fill-opacity="1" d="M 131.035156 216.101562 L 131.925781 216.101562 C 132.011719 216.101562 132.082031 216.121094 132.148438 216.160156 C 132.210938 216.203125 132.261719 216.257812 132.292969 216.332031 C 132.328125 216.40625 132.347656 216.492188 132.347656 216.589844 C 132.34375 216.6875 132.328125 216.773438 132.292969 216.847656 C 132.257812 216.921875 132.207031 216.980469 132.144531 217.019531 C 132.082031 217.0625 132.007812 217.082031 131.925781 217.082031 L 131.035156 217.082031 Z M 132.402344 219.132812 L 133.113281 219.132812 L 132.269531 217.601562 C 132.339844 217.582031 132.410156 217.554688 132.476562 217.515625 C 132.632812 217.429688 132.75 217.304688 132.835938 217.144531 C 132.917969 216.984375 132.964844 216.800781 132.964844 216.589844 C 132.964844 216.378906 132.917969 216.195312 132.835938 216.035156 C 132.75 215.875 132.632812 215.753906 132.476562 215.664062 C 132.324219 215.578125 132.148438 215.535156 131.945312 215.535156 L 130.441406 215.535156 L 130.441406 219.132812 L 131.035156 219.132812 L 131.035156 217.648438 L 131.613281 217.648438 Z M 132.402344 219.132812 "/>
<path fill-rule="nonzero" fill="#c5d92d" fill-opacity="1" d="M 76.355469 204.695312 C 76.214844 204.695312 76.074219 204.644531 75.964844 204.550781 L 57.84375 189.003906 L 57.84375 204.667969 L 56.644531 204.667969 L 56.644531 187.699219 C 56.644531 187.464844 56.777344 187.25 56.992188 187.152344 C 57.207031 187.054688 57.457031 187.089844 57.632812 187.242188 L 75.753906 202.789062 L 75.753906 186.996094 L 76.953125 186.996094 L 76.953125 204.09375 C 76.953125 204.328125 76.816406 204.542969 76.605469 204.640625 C 76.523438 204.679688 76.4375 204.695312 76.355469 204.695312 "/>
<path fill-rule="nonzero" fill="#c5d92d" fill-opacity="1" d="M 106.050781 202.597656 L 95.035156 207.792969 L 95.035156 193.90625 L 106.050781 188.394531 Z M 93.835938 207.792969 L 82.820312 202.597656 L 82.820312 188.394531 L 93.835938 193.90625 Z M 106.964844 186.914062 C 106.789062 186.804688 106.566406 186.792969 106.382812 186.886719 L 94.433594 192.863281 L 82.488281 186.886719 C 82.304688 186.792969 82.082031 186.804688 81.90625 186.914062 C 81.726562 187.023438 81.621094 187.214844 81.621094 187.421875 L 81.621094 202.976562 C 81.621094 203.210938 81.753906 203.421875 81.964844 203.519531 L 94.179688 209.285156 C 94.261719 209.320312 94.347656 209.339844 94.4375 209.339844 C 94.523438 209.339844 94.609375 209.320312 94.691406 209.28125 L 94.691406 209.285156 L 94.699219 209.277344 L 106.90625 203.519531 C 107.117188 203.421875 107.25 203.210938 107.25 202.976562 L 107.25 187.421875 C 107.25 187.214844 107.140625 187.023438 106.964844 186.914062 "/>
<path fill-rule="nonzero" fill="#c5d92d" fill-opacity="1" d="M 94.242188 188.355469 C 94.167969 188.355469 94.09375 188.339844 94.027344 188.304688 L 90.785156 186.738281 C 90.539062 186.617188 90.433594 186.316406 90.554688 186.070312 C 90.675781 185.820312 90.972656 185.714844 91.222656 185.835938 L 94.25 187.300781 L 97.375 185.882812 C 97.628906 185.765625 97.925781 185.878906 98.039062 186.128906 C 98.152344 186.382812 98.042969 186.679688 97.789062 186.792969 L 94.449219 188.308594 C 94.382812 188.339844 94.3125 188.355469 94.242188 188.355469 "/>
<path fill-rule="nonzero" fill="#c5d92d" fill-opacity="1" d="M 129.207031 186.953125 L 113.082031 202.695312 L 113.082031 187.074219 L 111.878906 187.074219 L 111.878906 204.121094 C 111.878906 204.363281 112.023438 204.582031 112.246094 204.675781 C 112.324219 204.707031 112.402344 204.722656 112.480469 204.722656 C 112.632812 204.722656 112.785156 204.664062 112.898438 204.550781 L 130.925781 186.953125 Z M 129.207031 186.953125 "/>
<path fill-rule="nonzero" fill="#c5d92d" fill-opacity="1" d="M 132.828125 204.742188 L 132.859375 204.707031 L 123.9375 196.84375 L 123.144531 197.746094 L 131.085938 204.742188 Z M 132.828125 204.742188 "/></svg>
